<svg xmlns="http://www.w3.org/2000/svg" xmlns:xlink="http://www.w3.org/1999/xlink" width="215" height="144"><defs><linearGradient id="c" x1="15.04%" x2="50%" y1="0%" y2="100%"><stop offset="0%" stop-color="#9B9B9B"/><stop offset="100%" stop-color="#626262"/></linearGradient><linearGradient id="d" x1="12.36%" x2="50%" y1="0%" y2="100%"><stop offset="0%" stop-color="#A7C8FF"/><stop offset="100%" stop-color="#6E97FF"/></linearGradient><linearGradient id="e" x1="50%" x2="57.4%" y1="0%" y2="100%"><stop offset="0%" stop-color="#FED798"/><stop offset="100%" stop-color="#FCB94D"/></linearGradient><linearGradient id="f" x1="15.95%" x2="50%" y1="8.91%" y2="100%"><stop offset="0%" stop-color="#B5B1BF"/><stop offset="100%" stop-color="#595563"/></linearGradient><linearGradient id="g" x1="12.47%" x2="50%" y1="0%" y2="100%"><stop offset="0%" stop-color="#A7C8FF"/><stop offset="100%" stop-color="#6E97FF"/></linearGradient><rect id="a" width="215" height="144" rx="6"/></defs><g fill="none" fill-rule="evenodd"><mask id="b" fill="#fff"><use xlink:href="#a"/></mask><g mask="url(#b)"><g transform="translate(134 63)"><ellipse cx="75.09" cy="73.08" fill="#5C5CD6" opacity=".4" rx="57.91" ry="57.92"/><g transform="translate(20.61 19.75)"><ellipse cx="17.2" cy="17.2" fill="url(#c)" rx="17.2" ry="17.2"/><path fill="#FFF" fill-rule="nonzero" d="M26.25 14.56c.41-2.77-1.7-4.26-4.58-5.25l.93-3.76-2.29-.57-.9 3.66c-.6-.15-1.23-.3-1.84-.43l.92-3.69-2.29-.56-.93 3.75c-.5-.11-.99-.22-1.46-.34v-.01l-3.15-.8-.61 2.45s1.7.39 1.66.41c.93.23 1.1.85 1.06 1.33l-1.06 4.28.24.08-.25-.06-1.5 6c-.1.27-.4.7-1.04.54.02.03-1.66-.42-1.66-.42L6.36 23.8l2.98.74 1.63.42-.95 3.8 2.29.57.93-3.76c.63.17 1.23.33 1.83.47l-.94 3.75 2.29.57.94-3.8c3.9.74 6.83.44 8.07-3.08 1-2.84-.05-4.48-2.1-5.55 1.5-.34 2.62-1.33 2.92-3.36zm-5.23 7.33c-.7 2.84-5.48 1.3-7.03.92l1.25-5.03c1.55.38 6.52 1.15 5.78 4.11zm.71-7.37c-.64 2.59-4.62 1.27-5.91.95l1.14-4.56c1.29.32 5.44.92 4.77 3.61z"/></g><path fill="url(#d)" fill-rule="nonzero" d="M17.2 34.4a17.2 17.2 0 1 0 0-34.4 17.2 17.2 0 0 0 0 34.4z" transform="translate(0 62.95)"/><path fill="#1E1A31" fill-rule="nonzero" d="M20.53 84.21c0-.56.1-.99.33-1.3.22-.3.53-.46.93-.46.3 0 .54.08.73.25.18.17.3.4.35.7.05-.36.16-.63.35-.82a1 1 0 0 1 .77-.3c.42 0 .75.16 1 .48.23.32.35.78.35 1.36v1.92h-4.81v-1.83zm1.98.8v-.82c0-.22-.05-.4-.16-.52a.53.53 0 0 0-.43-.18.53.53 0 0 0-.42.18c-.1.12-.16.3-.16.52V85h1.17zm2.02 0v-.9a.9.9 0 0 0-.16-.56.52.52 0 0 0-.44-.21c-.2 0-.35.07-.46.2a.9.9 0 0 0-.16.58v.9h1.22zm-4-2.82v-3.8h.89v1.38h3.92v1.03h-3.93v1.4h-.88zm2.4-3.85c-.48 0-.91-.1-1.28-.28-.37-.2-.66-.47-.86-.82-.2-.36-.3-.78-.3-1.26 0-.38.07-.71.22-1.01.14-.3.35-.54.62-.72.26-.19.57-.3.92-.33v1.03c-.28.06-.5.18-.65.38-.16.18-.24.42-.24.7 0 .39.14.7.43.92.3.23.67.34 1.15.34.46 0 .84-.12 1.14-.34.29-.23.43-.53.43-.92 0-.28-.08-.52-.23-.7-.16-.2-.38-.32-.66-.38v-1.03a1.86 1.86 0 0 1 1.54 1.05 2.52 2.52 0 0 1-.08 2.27c-.2.35-.48.62-.85.82-.37.19-.8.28-1.3.28z"/><path fill="#1E1A31" d="M9.34 86.86L7.9 85.84l9-12.51 1.43 1.02z" opacity=".5"/><path fill="#1E1A31" d="M13.98 79.27h.48a4 4 0 1 1 0 8h-5.9a.88.88 0 1 1 0-1.76h5.9a2.24 2.24 0 1 0 0-4.48h-2.77a4 4 0 1 1 0-7.99h5.9a.88.88 0 1 1 0 1.75h-5.9a2.24 2.24 0 1 0 0 4.48h2.29z"/><g transform="translate(60.53)"><ellipse cx="17.2" cy="17.2" fill="#FFF" rx="17.2" ry="17.2"/><path fill="url(#e)" fill-rule="nonzero" d="M24.6 15.41c.33-2.23-1.37-3.43-3.7-4.23l.76-3.02-1.84-.46-.73 2.95-1.47-.35.73-2.96-1.83-.46-.76 3.02-1.17-.27v-.01l-2.54-.64-.49 1.97s1.37.31 1.34.33c.75.19.88.68.86 1.07l-.86 3.44.19.06-.2-.05-1.2 4.83c-.09.22-.32.56-.84.43.02.03-1.34-.33-1.34-.33l-.9 2.1 2.38.6 1.32.34-.77 3.06 1.84.46.75-3.03c.5.14 1 .26 1.47.38l-.75 3.01 1.84.46.76-3.05c3.14.6 5.5.35 6.49-2.48.8-2.29-.04-3.6-1.7-4.46 1.2-.28 2.11-1.07 2.36-2.7zm-4.2 5.9c-.58 2.28-4.42 1.05-5.67.74L15.74 18c1.25.31 5.25.93 4.65 3.3zm.56-5.93c-.52 2.08-3.72 1.02-4.76.76l.92-3.67c1.04.26 4.38.74 3.84 2.91z" transform="rotate(-14 16.62 17.5)"/><path fill="url(#f)" d="M26.29 27.54l1.22 1.22a15.44 15.44 0 0 1-20.6 0l1.2-1.22a13.7 13.7 0 0 0 9.1 3.43c3.47 0 6.65-1.3 9.08-3.43zM5.65 6.9l1.22 1.22a13.71 13.71 0 0 0 0 18.17L5.65 27.5a15.44 15.44 0 0 1 0-20.6zm27.03 10.3c0 3.96-1.48 7.57-3.92 10.3l-1.22-1.21a13.7 13.7 0 0 0 3.42-9.09c0-3.48-1.29-6.66-3.42-9.08l1.22-1.22a15.43 15.43 0 0 1 3.92 10.3zM17.2 1.72c3.96 0 7.57 1.49 10.3 3.93L26.3 6.87a13.7 13.7 0 0 0-9.09-3.43c-3.48 0-6.66 1.3-9.08 3.43L6.9 5.65a15.43 15.43 0 0 1 10.3-3.93z"/></g><g transform="translate(38 37)"><ellipse cx="52.65" cy="51.59" fill="#5C5CD6" opacity=".4" rx="42.35" ry="42.41"/><path fill="url(#g)" fill-rule="nonzero" d="M12.59 25.22a12.6 12.6 0 1 0-.02-25.2 12.6 12.6 0 0 0 .02 25.2z" transform="translate(12.72 12.7)"/><path fill="#1E1A31" fill-rule="nonzero" d="M27.75 28.3c0-.42.08-.74.24-.96a.8.8 0 0 1 .68-.34c.22 0 .4.06.53.18s.23.3.27.52c.03-.27.11-.47.25-.6a.73.73 0 0 1 .56-.23c.31 0 .55.12.73.36.18.23.26.56.26 1v1.4h-3.52V28.3zm1.45.58v-.6a.56.56 0 0 0-.12-.39c-.07-.09-.18-.13-.31-.13s-.23.04-.31.13a.56.56 0 0 0-.12.38v.6h.86zm1.47 0v-.66a.66.66 0 0 0-.11-.42.39.39 0 0 0-.32-.15.4.4 0 0 0-.34.15.65.65 0 0 0-.12.42v.66h.9zm-2.92-2.07v-2.8h.65v1.02h2.87v.76H28.4v1.02h-.65zm1.76-2.82c-.36 0-.67-.07-.94-.21a1.5 1.5 0 0 1-.63-.6 1.86 1.86 0 0 1-.22-.92c0-.28.05-.53.16-.75a1.37 1.37 0 0 1 1.13-.77v.76a.8.8 0 0 0-.48.28.78.78 0 0 0-.17.52c0 .28.1.5.31.67.22.16.5.24.84.24.34 0 .62-.08.84-.24a.8.8 0 0 0 .31-.67.8.8 0 0 0-.17-.52.83.83 0 0 0-.48-.28v-.76a1.37 1.37 0 0 1 1.13.77c.1.22.16.47.16.75 0 .35-.07.66-.22.92a1.5 1.5 0 0 1-.62.6c-.28.14-.6.2-.95.2z"/><path fill="#1E1A31" d="M19.56 30.23l-1.05-.75 6.59-9.17 1.05.75z" opacity=".5"/><path fill="#1E1A31" d="M22.95 24.67h.35a2.93 2.93 0 1 1 0 5.86H19a.64.64 0 1 1 0-1.3h4.3a1.64 1.64 0 1 0 0-3.27h-2.02a2.93 2.93 0 1 1 0-5.86h4.31a.64.64 0 1 1 0 1.29h-4.31a1.64 1.64 0 1 0 0 3.28h1.67z"/></g><g transform="translate(63 62)"><ellipse cx="39.02" cy="37.95" fill="#5C5CD6" opacity=".4" rx="30.98" ry="31.05"/><g transform="translate(9.39 9.37)"><ellipse cx="9.18" cy="9.2" fill="#FFF" rx="9.18" ry="9.2"/><path fill="#F7931A" fill-rule="nonzero" d="M12.73 7.25c-.12-1.2-1.15-1.6-2.46-1.72V3.86h-1v1.62l-.82.01V3.86h-1v1.67H5.4V6.6s.75-.01.74 0c.4 0 .54.24.58.44v1.9h.11-.1v2.67c-.02.13-.1.33-.39.33h-.73l-.2 1.21h2.04v1.7h1v-1.67h.82v1.66h1v-1.68c1.7-.1 2.9-.52 3.05-2.12.12-1.3-.5-1.87-1.46-2.1.59-.3.96-.83.87-1.7zm-1.41 3.6c0 1.26-2.15 1.11-2.84 1.11V9.73c.69 0 2.83-.2 2.84 1.12zm-.47-3.15c0 1.15-1.8 1.01-2.37 1.01V6.69c.57 0 2.36-.19 2.37 1z"/><path fill="#595563" d="M14.03 14.73l.65.65a8.23 8.23 0 0 1-11 0l.65-.65a7.3 7.3 0 0 0 9.7 0zM3.01 3.69l.65.65a7.33 7.33 0 0 0 0 9.72l-.65.65a8.27 8.27 0 0 1 0-11.02zM17.44 9.2c0 2.12-.79 4.05-2.1 5.51l-.64-.65a7.34 7.34 0 0 0 0-9.72l.65-.65a8.26 8.26 0 0 1 2.1 5.51zM9.18.92c2.11 0 4.04.8 5.5 2.1l-.65.65a7.31 7.31 0 0 0-9.7 0l-.65-.65a8.22 8.22 0 0 1 5.5-2.1z"/></g></g></g></g></g></svg>