<svg xmlns="http://www.w3.org/2000/svg" xmlns:xlink="http://www.w3.org/1999/xlink" width="215" height="144"><defs><linearGradient id="c" x1="50%" x2="50%" y1="0%" y2="99.74%"><stop offset="0%" stop-color="#FED798"/><stop offset="100%" stop-color="#FFC669"/></linearGradient><linearGradient id="d" x1="50%" x2="50%" y1="0%" y2="100%"><stop offset="0%" stop-color="#7DCBFC"/><stop offset="100%" stop-color="#2E8FF9"/></linearGradient><rect id="a" width="215" height="144" rx="6"/></defs><g fill="none" fill-rule="evenodd"><mask id="b" fill="#fff"><use xlink:href="#a"/></mask><g fill-rule="nonzero" mask="url(#b)"><path fill="url(#c)" d="M35.95 0a35.95 35.95 0 1 1 0 71.9 35.95 35.95 0 0 1 0-71.9z" transform="translate(135 82)"/><path fill="#FEFEFD" d="M172.28 120.5h13.66c.3 0 .43 0 .45-.39.11-1.39.11-2.79 0-4.18 0-.27-.13-.38-.42-.38h-27.2c-.33 0-.42.11-.42.43v4c0 .51 0 .51.54.51h13.39zm12.59-9.62a.44.44 0 0 0 0-.32 8.9 8.9 0 0 0-.82-1.41 11.57 11.57 0 0 0-1.66-2.1c-.3-.37-.64-.72-1.03-1a16.16 16.16 0 0 0-6.75-3.42 16.75 16.75 0 0 0-3.82-.4h-12.06c-.34 0-.38.13-.38.42v7.98c0 .34 0 .43.42.43h25.93s.23-.05.27-.18h-.1zm0 14.29a5.25 5.25 0 0 0-1.15 0H158.8c-.34 0-.45 0-.45.45v7.8c0 .36 0 .45.45.45h11.5c.55.04 1.1 0 1.64-.12 1.67-.12 3.31-.48 4.88-1.08.57-.2 1.12-.45 1.64-.76h.16a14.6 14.6 0 0 0 6.27-6.31s.15-.34-.02-.43zm-31.04 12.74v-12.43c0-.29 0-.33-.36-.33h-4.87c-.27 0-.39 0-.39-.36v-4.27h5.22c.29 0 .4 0 .4-.38v-4.23c0-.27 0-.34-.36-.34h-4.87c-.27 0-.39 0-.39-.36v-3.95c0-.25 0-.31.36-.31h4.83c.34 0 .43 0 .43-.43V98.4c0-.36 0-.45.45-.45h16.85c1.23.05 2.44.18 3.64.4 2.48.46 4.86 1.35 7.04 2.6a19.8 19.8 0 0 1 3.95 3.07c.9.92 1.7 1.92 2.4 2.98.71 1.08 1.3 2.24 1.76 3.44.06.32.36.53.67.48h4.03c.51 0 .51 0 .53.49v3.69c0 .36-.13.45-.49.45h-3.1c-.32 0-.4 0-.38.4.12 1.37.12 2.74 0 4.11 0 .38 0 .43.42.43h3.55c.16.2 0 .4 0 .6.03.27.03.53 0 .8v2.71c0 .38-.1.5-.45.5h-4.24a.56.56 0 0 0-.66.42 17.97 17.97 0 0 1-4.72 6.88c-.76.69-1.56 1.34-2.4 1.93-.9.52-1.78 1.06-2.7 1.49a24.3 24.3 0 0 1-5.3 1.68c-1.74.31-3.5.45-5.26.43h-15.6v-.03h.01z"/><path fill="url(#d)" d="M36 72c19.95 0 36-16.05 36-36S55.95 0 36 0 0 16.05 0 36s16.05 36 36 36z" transform="translate(178 82)"/><path fill="#FFF" d="M223.9 123.7c0-5.25-3.15-7.05-9.45-7.8-4.5-.6-5.4-1.8-5.4-3.9 0-2.1 1.5-3.45 4.5-3.45 2.7 0 4.2.9 4.95 3.15.15.45.6.75 1.05.75h2.4c.6 0 1.05-.45 1.05-1.05v-.15a7.5 7.5 0 0 0-6.75-6.15v-3.6c0-.6-.45-1.05-1.2-1.2h-2.25c-.6 0-1.05.45-1.2 1.2v3.45c-4.5.6-7.35 3.6-7.35 7.35 0 4.95 3 6.9 9.3 7.65 4.2.75 5.55 1.65 5.55 4.05s-2.1 4.05-4.95 4.05c-3.9 0-5.25-1.65-5.7-3.9-.15-.6-.6-.9-1.05-.9h-2.55c-.6 0-1.05.45-1.05 1.05v.15c.6 3.75 3 6.45 7.95 7.2v3.6c0 .6.45 1.05 1.2 1.2h2.25c.6 0 1.05-.45 1.2-1.2v-3.6c4.5-.75 7.5-3.9 7.5-7.95z"/><path fill="#FFF" d="M206.35 139.45a22.34 22.34 0 0 1-13.35-28.8c2.25-6.3 7.2-11.1 13.35-13.35.6-.3.9-.75.9-1.5v-2.1c0-.6-.3-1.05-.9-1.2-.15 0-.45 0-.6.15a26.95 26.95 0 0 0-17.55 33.9 26.98 26.98 0 0 0 17.55 17.55c.6.3 1.2 0 1.35-.6.15-.15.15-.3.15-.6v-2.1c0-.45-.45-1.05-.9-1.35zm15.9-46.8c-.6-.3-1.2 0-1.35.6-.15.15-.15.3-.15.6v2.1c0 .6.45 1.2.9 1.5a22.34 22.34 0 0 1 13.35 28.8 22.19 22.19 0 0 1-13.35 13.35c-.6.3-.9.75-.9 1.5v2.1c0 .6.3 1.05.9 1.2.15 0 .45 0 .6-.15a26.95 26.95 0 0 0 17.55-33.9 27.2 27.2 0 0 0-17.55-17.7z"/></g></g></svg>