<svg xmlns="http://www.w3.org/2000/svg" xmlns:xlink="http://www.w3.org/1999/xlink" width="215" height="144"><defs><linearGradient id="c" x1="100%" x2="0%" y1="50%" y2="50%"><stop offset="0%" stop-color="#544CF2"/><stop offset="100%" stop-color="#D93CEF"/></linearGradient><linearGradient id="d" x1="91.69%" x2="0%" y1="50%" y2="50%"><stop offset="0%" stop-color="#4136DE"/><stop offset="100%" stop-color="#8183FF"/></linearGradient><rect id="a" width="215" height="144" rx="6"/></defs><g fill="none" fill-rule="evenodd"><mask id="b" fill="#fff"><use xlink:href="#a"/></mask><g mask="url(#b)"><path fill="url(#c)" d="M2.4 17.82c6.55-4.77 11.52-8.17 14.91-10.18 3.4-2.02 8.41-4.56 15.06-7.64 7.6 3.7 13.29 6.68 17.05 8.91 3.76 2.23 8.1 5.2 12.98 8.9V51.7L32.17 69.6a216.89 216.89 0 0 1-15.6-8.83c-3.4-2.2-8.11-5.67-14.17-10.45v-32.5z" transform="translate(130 85.4)"/><path fill="#FFF" d="M162.4 85.4c1.7 0 3.31.48 4.82 1.26l22.77 12.8a9.19 9.19 0 0 1 4.81 8.04V133c0 3.33-1.84 6.4-4.82 8.04l-22.76 12.7a9.4 9.4 0 0 1-4.82 1.26 9.4 9.4 0 0 1-4.82-1.26l-22.77-12.7A9.19 9.19 0 0 1 130 133v-25.5a9.2 9.2 0 0 1 4.82-8.04l22.77-12.8a9.4 9.4 0 0 1 4.81-1.26zm0 3a6.4 6.4 0 0 0-3.21.88l-22.87 12.7a6.51 6.51 0 0 0-3.31 5.52v25.4a6.4 6.4 0 0 0 3.31 5.52l22.77 12.7a6.76 6.76 0 0 0 6.62 0l22.77-12.6c2-1.16 3.31-3.3 3.31-5.52v-25.5a6.4 6.4 0 0 0-3.3-5.52l-22.78-12.7c-1-.58-2.2-.88-3.31-.88zm0 8.44c.9 0 1.8.2 2.6.77l16.36 9.12c1.6.87 2.6 2.52 2.6 4.36v18.22c0 1.75-1 3.5-2.6 4.36L165 142.8c-.8.48-1.7.67-2.61.67-.9 0-1.8-.19-2.6-.68l-16.36-9.1a4.94 4.94 0 0 1-2.6-4.37V111c0-1.74 1-3.49 2.6-4.36l16.35-9.11c.8-.49 1.7-.68 2.61-.68zm0 2.52c-.4 0-.9.1-1.3.39l-16.25 9.1c-.8.5-1.3 1.37-1.3 2.24v18.32c0 .97.5 1.74 1.3 2.23l16.35 9.11c.4.29.8.39 1.3.39s.9-.2 1.3-.39l16.36-9.11a2.67 2.67 0 0 0 1.3-2.23v-18.32c0-.97-.5-1.75-1.3-2.23l-16.46-9.11c-.4-.3-.8-.4-1.3-.4zm0 8.92c.5 0 .9.1 1.3.39l8.43 4.65c.8.48 1.29 1.32 1.3 2.23v9.4c0 .97-.5 1.74-1.3 2.23l-8.43 4.65c-.4.3-.8.39-1.3.39-.4 0-.9-.2-1.3-.39l-8.43-4.65a2.67 2.67 0 0 1-1.3-2.23v-9.4c0-.97.5-1.75 1.3-2.23l8.43-4.65c.4-.3.8-.4 1.3-.4zm.1 2.32h-.2l-8.43 4.66-.1 9.6 8.53 4.84 8.63-4.65.1-9.6-8.53-4.85z"/><g><path fill="url(#d)" d="M33.44.53c1.24 0 2.59.33 3.7.98l25.5 14.22a7.17 7.17 0 0 1 3.71 6.19v28.54a7.3 7.3 0 0 1-3.7 6.19l-25.5 14.1a7.58 7.58 0 0 1-7.41 0L4.24 56.55a7.17 7.17 0 0 1-3.7-6.19V21.92a7.3 7.3 0 0 1 3.7-6.2l25.6-14.2a7.15 7.15 0 0 1 3.6-.99z" transform="translate(173.8 83)"/><path fill="#FFF" d="M207.32 83c1.76 0 3.42.5 4.98 1.3l23.55 13.24a9.5 9.5 0 0 1 4.98 8.32v26.38a9.5 9.5 0 0 1-4.98 8.32L212.3 153.7a9.7 9.7 0 0 1-4.98 1.3c-1.77 0-3.43-.4-4.98-1.3l-23.56-13.14a9.5 9.5 0 0 1-4.98-8.32v-26.38a9.5 9.5 0 0 1 4.98-8.32l23.56-13.24a9.7 9.7 0 0 1 4.98-1.3zm0 3.1a6.6 6.6 0 0 0-3.32.91l-23.66 13.14a6.74 6.74 0 0 0-3.43 5.71v26.28c0 2.4 1.35 4.5 3.43 5.71L203.89 151c.84.47 1.76.77 2.72.86v-5.9h-1.93c-2.36 0-3.62-1.44-3.76-4.31a15.84 15.84 0 0 1-7.1-3.66 13.86 13.86 0 0 1-4.26-9.48v-7.93a4.29 4.29 0 0 1-1.44-3.17c0-2.43 2.15-4.42 4.84-4.53H202.52V111h-9.51a80.94 80.94 0 0 1 .06-2.67h9.45v-1.86h-9.22c.68-3.76 2.72-7.35 7.43-8.86v2.99h1.87v-3.45a18.63 18.63 0 0 1 4-.28v3.73h1.87v-3.73h1.08c1.05.04 2.02.16 2.92.34v3.39h1.86v-2.85c4.28 1.6 6.35 5.15 7.05 8.72h-9.26v1.86h9.5l.02.51v.09l.01 2.07h-9.53v1.87h9.56c2.7.1 4.84 2.1 4.84 4.53 0 1.17-.5 2.24-1.3 3.04v7.27c0 4.37-2.15 7.74-4 9.68-1.34 1.42-4 3.34-7 4.27l.01-.06c-.12 2.8-1.25 4.25-3.39 4.34h-2.37v5.86c.8-.13 1.57-.4 2.27-.81l23.56-13.04a6.74 6.74 0 0 0 3.42-5.71v-26.38c0-2.4-1.35-4.5-3.42-5.71L210.74 87a6.98 6.98 0 0 0-3.42-.9zM202.7 142v.05c.19 1.57.9 2.22 2.59 2.22h4.73c1.13 0 1.89-.22 2.32-1.04.17-.33.16-.71.16-1.16-.54.09-1.08.13-1.62.13h-.34c-.83 0-1.22-.02-2.84 0-.23 0-1.26.06-2.85 0-.7-.02-1.43-.1-2.16-.2zm20.71-20.4c-.51.19-1.07.3-1.66.34H212.12v1.87l9.54.16v2.5h-9.54v1.87h9.46c-.46 3.74-3.04 7.3-7.25 9.02V135h-1.86v2.96a15.54 15.54 0 0 1-4 .45V135h-1.87v3.41h-1.08a16.98 16.98 0 0 1-2.92-.34V135h-1.87v2.55c-4.61-1.62-7.2-5.32-7.64-9.22h9.43v-1.86h-9.5v-2.67h9.5v-1.87h-9.5.17c-.63 0-1.23-.1-1.79-.29v6.07c0 2.61 1.04 5.97 3.46 8.39 2.42 2.42 6.37 4.2 9.6 4.19 3.25-.02 3.03 0 3.24 0 1.66-.03 2.54-.02 3.52-.08 3.11-.17 6.57-2.06 8.47-4.11 1.89-2.06 3.72-4.75 3.72-8.4v-6.12zm-15.99-7.19a.87.87 0 0 0-.34.06l-.1.06-2.07 1.18-.1.06a.86.86 0 0 0-.34.57v2.6c.03.22.15.43.34.56l.1.07 2.07 1.17.1.06c.11.04.22.06.34.06.12 0 .23-.02.33-.06l.1-.06 2.08-1.17.1-.07c.18-.13.3-.34.34-.56v-2.6a.86.86 0 0 0-.34-.56l-.1-.07-2.07-1.18-.1-.05a.89.89 0 0 0-.34-.07zm14.23.34v1.86h-5.8v1.87h5.8v1.51h.55c1.29-.3 2.23-1.34 2.23-2.58 0-1.41-1.22-2.57-2.78-2.66zm-28.75 0c-1.7 0-3.1 1.19-3.1 2.66 0 1.24 1 2.28 2.32 2.58h.78v-1.52h6.16v-1.86h-6.16v-1.87z"/></g></g></g></svg>