<svg xmlns="http://www.w3.org/2000/svg" width="560" height="200"><g fill="none" fill-rule="evenodd"><path fill="none" d="M0 0h560v200H0z"/><path fill="#5C5CD6" stroke="#0A0A0E" stroke-linecap="round" stroke-linejoin="round" stroke-width="2" d="M228.7 31.8c6.4-3.7 14-.4 24 5.8 9.9 6.1 34.2 2 40.4.7 6.2-1.5 17.5-11.8 25.3-7.5 7.7 4.3 1.1 14.3 3.2 20.4 2 6.1 20.3 17 17.3 36.3-3 19.4-12.6 24.2-12.6 28.5-.1 4.3 2.9 57 .9 58s-24.1 7.6-49.3 7.2c-25.3-.5-50.1-3.7-51.6-10-1.5-6.4-3.5-40.3-2-51.6 1.5-11-9.5-12-9.1-33.3.2-15.4 11.5-22.7 11.6-29.7.2-7-4.4-21.1 2-24.8z"/><path fill="#0A0A0E" d="M265.8 80.4c0-2.2 1.4-4.5 6.1-5 4.7-.7 6 .7 6.8 2.6.8 2-1.3 4.4-3 5-1.7.7-1.2 3.2-2.7 3.2-1 0-2-1.1-3-3.3-2.8-.2-4.2-1-4.2-2.5z"/><path stroke="#0A0A0E" stroke-linecap="round" stroke-linejoin="round" stroke-width="2" d="M307.8 84c9.2.1 16.9-2 23-6.7m-28 9.6c7.2 5.8 14.8 7.6 23 5.4m-86-4.9c-9 1.7-15.2.6-19-3.4m23.3 6a26 26 0 0 1-25.4 1.8m13.2-51.6c7-2.7 11.4-.3 12.9 7m67.2-12c-6.1 5.7-7.7 11.3-4.8 17"/><path fill="#B2ABFF" d="M242.7 70.9a66.3 66.3 0 0 0-1.4 13.7c.7 9.1 3.8 14.4 4.8 15.4 2.3 2.1 11 1.5 12.7-2 2.6-5.8-1.2-7.5-2.1-14.1-.4-2.5.3-7.1 2-14-4-.7-7-1-9-.9-2 .2-4.3.8-7 1.9z"/><path fill="#FF5BB6" stroke="#0A0A0E" stroke-width="2" d="M276.9 86c4.4-1 9-1.6 10.7-.5.4.2.6.5.7.9.2.5.3 1.2.2 1.9 0 1.6-.7 3.6-1.8 5.4-1.7 2.9-4.4 5.4-7.7 5.4a14.5 14.5 0 0 1-12-6.6c-.4-.9-.8-1.7-.5-2.3.6-1.5 5.6-3.1 10.4-4.2z"/><path stroke="#0A0A0E" stroke-linecap="round" stroke-linejoin="round" stroke-width="2" d="M240.1 73.6c3.5-5.7 9.7-7.2 18.4-4.3"/><path fill="#5C5CD6" stroke="#0A0A0E" stroke-linecap="round" stroke-linejoin="round" stroke-width="2" d="M249.3 62.1c5.7-.2 9.6-1.8 11.5-4.6m20.7-2.3c1.9 4.1 5.3 5.5 10.3 4.1m33.8 54.5c9.7 9.6 15.3 19.1 16.8 28.7 2.3 14.3 1.9 20-7.5 22.8-9.3 2.7-20.4-13.4-23.5-21.2m-38-59.5c1.8 3.6 5.3 4.8 10.7 3.4 5.3-1.4 7.4-3.9 6.3-7.5M273.3 84c.8 4.5-1.2 7.1-6 7.9-4.7.7-8-1.9-10-8"/><path fill="#5C5CD6" stroke="#0A0A0E" stroke-linecap="round" stroke-linejoin="round" stroke-width="2" d="M227.2 138c-22.8-27-4.6-55.2.7-61.4 5.3-6 15.8-14.2 25.3-9.8 9.5 4.5 7.6 18 .4 24-4.7 4.1-8.9 10.6-12.5 19.5"/><path fill="#B2ABFF" d="M286.1 66.3c-.5 3.5.3 7.6 2.3 12.3 3.3 7.4-5 9.8 3.6 17.7 2.3 2 10 2.5 12.6-2.1.8-1.6 1.9-7.6 0-14.4a57 57 0 0 1-2.6-14.4c-4-.8-7-1-9-1-2 .2-4.2.8-6.9 2z"/><path stroke="#0A0A0E" stroke-linecap="round" stroke-linejoin="round" stroke-width="2" d="M283.8 66.7c10.4-3 17.7-3 21.8-.1"/></g></svg>