<svg xmlns="http://www.w3.org/2000/svg" width="580" height="186"><defs><linearGradient id="a" x1="60.74%" x2="39.26%" y1="100%" y2="15.43%"><stop offset="0%" stop-color="#4136DE"/><stop offset="100%" stop-color="#8183FF"/></linearGradient><linearGradient id="b" x1="77.89%" x2="12.73%" y1="0%" y2="80.7%"><stop offset="0%" stop-color="#EE71B8"/><stop offset="100%" stop-color="#EF40A1"/></linearGradient><linearGradient id="c" x1="31.28%" x2="31.28%" y1="0%" y2="50%"><stop offset="0%" stop-color="#EE77BA"/><stop offset="100%" stop-color="#EF40A1"/></linearGradient><linearGradient id="d" x1="31.28%" x2="31.28%" y1="0%" y2="50%"><stop offset="0%" stop-color="#EE77BA"/><stop offset="100%" stop-color="#EF40A1"/></linearGradient><linearGradient id="g" x1="31.28%" x2="31.28%" y1="0%" y2="50%"><stop offset="0%" stop-color="#EE77BA"/><stop offset="100%" stop-color="#EF40A1"/></linearGradient><radialGradient id="e" r="75.67%" fx="50%" fy="50%"><stop offset="0%" stop-color="#594AFF"/><stop offset="100%" stop-color="#3B2ECE"/></radialGradient><radialGradient id="f" r="76.04%" fx="50%" fy="50%" gradientTransform="matrix(.60159 -.79272 .78232 .60958 -.2 .6)"><stop offset="0%" stop-color="#594AFF"/><stop offset="100%" stop-color="#3B2ECE"/></radialGradient><radialGradient id="h" r="79.69%" fx="50%" fy="50%" gradientTransform="matrix(.574 -.75638 .81885 .53021 -.2 .61)"><stop offset="0%" stop-color="#594AFF"/><stop offset="100%" stop-color="#3B2ECE"/></radialGradient></defs><g fill="none" fill-rule="evenodd"><path fill="#131319" fill-opacity=".01" d="M0 6h580v180H0z"/><path fill="#5C5CD6" stroke="#0A0A0E" stroke-width="2" d="M259.9 68.07c4.83-2.49 10.63-.5 19.94 5 9.3 5.51 27.53 1.92 34.01.96 6.48-.95 15.06-13.6 23.99-8.45 8.93 5.16 2.96 13.8 4.65 18.19 1.7 4.4 11 10.56 12.46 26.2 1.45 15.64-7.67 20.12-10.76 24.61-3.1 4.5-1.21 9.77 5.29 6.4 6.5-3.35 17.5-11 21.95-3.35 4.45 7.64-7.58 17.18-13.48 21.07-5.9 3.9-10.65 4.56-12.56 6.27-1.91 1.72 2.32 8.32-3.13 10.7-5.45 2.36-19.41 5.31-52.42 5.31-33 0-34.91-6.53-34.91-10.15s1.76-9.51-5.38-11.95c-7.14-2.44-28.33-18.05-22.6-27.01 5.72-8.97 16.25 4.26 22.6 5.76 6.35 1.5 11.95 1.5 11.95-1.5s-13.45-6.25-11.95-23.46c1.5-17.2 10.21-17.2 9.12-23.56-1.09-6.35-3.6-18.55 1.23-21.04z"/><path stroke="#0A0A0E" stroke-linecap="round" stroke-linejoin="round" stroke-width="2" d="M293.04 114.41c-.57 4.88-3.08 7.77-7.51 8.67-3.79.77-8.06-1.35-9.57-3.16"/><path fill="#0A0A0E" d="M287.3 110.7c.02-1.78 1.15-3.64 5.14-4.14 4-.5 5.06.66 5.76 2.22.7 1.56-1.11 3.57-2.53 4.1-1.4.53-.98 2.6-2.3 2.58-.87-.01-1.74-.9-2.6-2.66-2.34-.2-3.5-.9-3.48-2.1z"/><path stroke="#0A0A0E" stroke-linecap="round" stroke-linejoin="round" stroke-width="2" d="M326.85 112.95c7.9.14 14.55-1.84 19.92-5.96m-76.86-4.62c6.07-5.02 10.4-4.95 12.99.22m22.57-.65c5.4-5.2 9.96-5.13 13.67.24m4 14.66c6.1 5.22 12.68 6.82 19.74 4.8m-73.17-7.53c-7.75 1.41-13.22.47-16.42-2.83m19.71 6.34c-7.01 4.27-14.18 4.8-21.5 1.57m42.44-4.78c0 4.4 1.82 7.16 5.46 8.27 6.05 1.84 12.05-1.68 13.9-4.75M262.43 75.07c6.04-2.39 9.69-.33 10.94 6.18m56.87-9.87c-5.1 4.67-6.44 9.33-4.01 13.98"/><path stroke="url(#a)" stroke-linecap="round" stroke-linejoin="round" stroke-width="4" d="M160.2 29.95c-5.93 2.1-8.4 4.53-7.43 7.28 1.45 4.13 10.28.56 10.28 3.65s-9.3 6.11-7.28 9.13c2.03 3.02 9.67-1.8 11.42 2.19 1.17 2.65.26 6.11-2.73 10.38" transform="translate(75 3)"/><path stroke="url(#b)" stroke-linecap="round" stroke-linejoin="round" stroke-width="4" d="M355.97 97.95c-1.3-6.53-1.3-10.74 0-12.62 1.94-2.82 9.59 6.13 13.11 4.17 3.52-1.95-1.62-6.73 0-9.83 1.62-3.1 9.84 1.71 11.36-2.72 1-2.96.2-5.94-2.46-8.95" transform="translate(75 3)"/><path fill="url(#c)" stroke="#0A0A0E" stroke-linejoin="round" stroke-width="2" d="M17.77-1c5.36 0 10.15 2.08 13.65 5.45a18.93 18.93 0 0 1 5.82 13.32c0 5.56-2.1 10.28-5.49 13.73a19.08 19.08 0 0 1-13.28 5.74c-5.56 0-10.28-2.1-13.73-5.49A19.08 19.08 0 0 1-1 18.47C-1 12.91 1.1 8.2 4.5 4.74 7.9 1.28 12.58-.9 17.76-1z" transform="rotate(30 100.99 938.4)"/><path fill="#FFF" fill-rule="nonzero" d="M491.83 113.96l-15.81-9.13a1.74 1.74 0 0 1-.64-2.38l9.13-15.81a1.75 1.75 0 0 1 2.38-.64l15.82 9.13c.83.48 1.11 1.55.63 2.38l-9.13 15.82a1.75 1.75 0 0 1-2.38.64z"/><path d="M479.28 104.19c-.05-.03-.07-.1-.04-.15l1.46-2.53c.03-.05.02-.12-.03-.15l-.9-.51c-.04-.03-.07-.1-.04-.15l.29-.49c.02-.05.1-.06.15-.04l2.74 1.6c.05.02.07.1.04.14l-.28.5c-.03.04-.1.05-.14.02l-.9-.5a.11.11 0 0 0-.14.03l-1.46 2.53c-.03.05-.1.08-.15.05l-.6-.35zm6.42-.7c.03-.04.1-.07.14-.04l.6.35c.05.03.07.1.04.15l-1 1.73c-.59 1.02-1.5 1.28-2.43.75-.9-.53-1.14-1.45-.55-2.48l1-1.72c.03-.05.1-.08.14-.05l.6.35c.05.03.07.1.04.15l-1 1.75c-.3.5-.25 1.01.2 1.27s.92.05 1.2-.45l1.02-1.75zm2.95 3.06c-.08-.05-.09-.1-.09-.17.04-.3-.1-.59-.45-.8-.31-.17-.64-.22-.76 0-.14.22.06.46.56.83.76.57 1.08 1.1.71 1.74-.42.73-1.28.74-2.1.27-.7-.4-1.12-1.1-.8-1.88.03-.08.08-.08.15-.04l.55.32c.07.04.1.09.08.16-.06.28.09.61.46.82.32.2.68.23.82-.02.18-.3-.09-.53-.64-.95-.64-.49-1-.97-.64-1.6s1.17-.77 2.03-.28c.76.44 1.06 1.17.81 1.85-.02.08-.07.11-.14.07l-.55-.32zm.03 3.06c-.05-.02-.06-.1-.03-.14l1.84-3.2c.03-.05.1-.08.15-.05l1.36.79c1 .58 1.39 1.72.8 2.74-.57 1-1.75 1.24-2.76.65l-1.36-.78zm1.75.11c.54.32 1.21.13 1.55-.46.35-.6.17-1.27-.38-1.58l-.56-.33c-.05-.03-.12 0-.15.04l-1.07 1.86a.1.1 0 0 0 .04.15l.57.32z" fill="#EF40A1" fill-rule="nonzero"/><path fill="url(#d)" d="M28.41 20.73H7.83a.29.29 0 0 1-.3-.29V8.99c0-.8.66-1.45 1.46-1.45h18.26c.8 0 1.45.65 1.45 1.45v11.45a.3.3 0 0 1-.29.29z" transform="rotate(30 100.99 938.4)"/><path fill="#FFF" fill-rule="nonzero" d="M490.16 100.74l-1.64-.94a.22.22 0 0 1-.07-.3l3.98-6.9c.06-.1.2-.14.3-.08l1.63.94c.1.06.14.2.08.3l-3.99 6.9c-.06.1-.19.14-.3.08z"/><path fill="#FFF" fill-rule="nonzero" d="M495.98 97.07l-7.4-4.28a.22.22 0 0 1-.09-.3l.95-1.62c.06-.1.19-.14.3-.08l7.4 4.27c.1.06.14.2.08.3l-.94 1.63c-.06.1-.2.14-.3.08z"/><g><path fill="url(#c)" stroke="#0A0A0E" stroke-linejoin="round" stroke-width="2" d="M18.1-1c5.27 0 10.05 2.14 13.5 5.6a19.03 19.03 0 0 1 5.6 13.5c0 5.27-2.14 10.05-5.6 13.5a19.04 19.04 0 0 1-13.5 5.6 19.04 19.04 0 0 1-13.5-5.6A19.04 19.04 0 0 1-1 18.1c0-5.28 2.14-10.05 5.6-13.5A19.04 19.04 0 0 1 18.1-1z" transform="rotate(-30 123.12 -155.47)"/><path fill="#FEFEFD" fill-rule="nonzero" d="M120.17 48.13l5.95-3.44c.13-.08.19-.11.1-.28-.3-.64-.65-1.25-1.05-1.82-.07-.12-.15-.14-.28-.06l-11.85 6.84c-.15.09-.16.16-.08.3l1 1.74c.13.22.13.22.37.09l5.84-3.37zm3.06-7.36c0-.06-.03-.1-.08-.14-.22-.16-.46-.3-.7-.41-.4-.22-.82-.38-1.26-.5a8.14 8.14 0 0 0-6.27.81l-5.26 3.04c-.14.09-.13.16-.06.29l2.01 3.47c.09.15.1.19.3.08l11.3-6.53s.09-.07.07-.14l-.05.03zm3.6 6.23c-.18.07-.34.17-.5.29l-10.86 6.27c-.15.08-.2.11-.09.3l1.97 3.4c.09.16.11.2.3.09l5.02-2.9c.25-.12.48-.27.69-.46a8.63 8.63 0 0 0 2.37-2.44l.07-.04a7.34 7.34 0 0 0 1.15-4.33s-.02-.19-.12-.18zm-10.32 13.36l-3.13-5.42c-.07-.12-.08-.14-.24-.05l-2.13 1.23c-.11.06-.16.1-.25-.06l-1.08-1.87 2.27-1.3c.13-.08.18-.11.08-.28l-1.06-1.84c-.07-.12-.08-.14-.24-.05l-2.13 1.22c-.11.07-.16.1-.25-.06l-1-1.72c-.06-.1-.08-.14.08-.23l2.1-1.21c.15-.09.2-.11.08-.3l-3.04-5.28c-.1-.15-.12-.2.08-.3l7.35-4.25a11.04 11.04 0 0 1 5.41-1.37 9.95 9.95 0 0 1 4.29 1.03c.58.3 1.13.65 1.63 1.06.1.12.29.14.41.04l1.76-1.02c.22-.13.22-.13.35.08l.93 1.61c.1.16.06.23-.1.32l-1.35.78c-.14.08-.18.1-.06.27.4.57.74 1.17 1.03 1.8.1.16.1.18.3.07l1.54-.89c.12.05.1.18.15.27.08.1.14.22.2.34l.69 1.18c.1.17.07.25-.08.33l-1.85 1.07a.28.28 0 0 0-.17.35c.22 1.4.1 2.84-.33 4.19-.16.49-.35.97-.56 1.45-.26.45-.51.9-.8 1.32a12.2 12.2 0 0 1-4.08 3.58l-6.8 3.92v-.01z"/></g><g><path fill="url(#c)" stroke="#0A0A0E" stroke-linejoin="round" stroke-width="2" d="M14.67-1C19-1 22.92.75 25.76 3.59a15.63 15.63 0 0 1 4.59 11.08c0 4.33-1.76 8.25-4.6 11.09a15.63 15.63 0 0 1-11.08 4.59c-4.32 0-8.24-1.76-11.08-4.6A15.63 15.63 0 0 1-1 14.68C-1 10.35.75 6.43 3.6 3.6A15.63 15.63 0 0 1 14.66-1z" transform="rotate(30 8.97 798.62)"/><path d="M410.86 114.24l.84 3.39-8.37 2.3-.87-3.33zm1.24 5.05l.86 3.32-13.22 3.5-.89-3.26zm-11.29-2.39l.9 3.4-3.37.88-.92-3.35zm12.66 7.5l.86 3.33-13.22 3.5-.88-3.26z" fill="#FFF" fill-rule="nonzero"/></g><g><path fill="url(#c)" stroke="#0A0A0E" stroke-linejoin="round" stroke-width="2" d="M14.2-1a15.15 15.15 0 0 1 15.2 15.2 15.16 15.16 0 0 1-15.2 15.2A15.15 15.15 0 0 1-1 14.2 15.15 15.15 0 0 1 14.2-1z" transform="rotate(-30 309.46 -220.47)"/><path fill="#FFF" fill-rule="nonzero" d="M175.6 130.39c-1.03-1.8-2.47-1.8-4.77-.8-1.65.68-2.2.44-2.61-.27-.42-.72-.17-1.48.86-2.07.92-.53 1.6-.52 2.3.1.15.12.36.14.51.05l.82-.47a.4.4 0 0 0 .16-.57l-.03-.05a2.96 2.96 0 0 0-3.52-.77l-.71-1.23c-.12-.2-.36-.27-.65-.17l-.77.44c-.2.12-.27.36-.17.65l.68 1.18c-1.42 1.09-1.8 2.67-1.06 3.96.97 1.69 2.38 1.76 4.69.78 1.58-.58 2.22-.54 2.69.28.47.82.08 1.8-.9 2.37-1.33.76-2.11.47-2.7-.21-.18-.18-.4-.2-.55-.1l-.87.5a.4.4 0 0 0-.15.56l.03.06c.95 1.16 2.3 1.6 4.14.89l.7 1.23c.13.2.37.27.66.17l.76-.44c.2-.12.27-.36.18-.65l-.71-1.23c1.39-1.14 1.79-2.81 1-4.2z"/><path fill="#FFF" fill-rule="nonzero" d="M172.71 139.23a8.81 8.81 0 0 1-10.24-7.2 8.75 8.75 0 0 1 1.93-7.2c.14-.22.16-.44 0-.7l-.4-.71c-.12-.2-.32-.3-.55-.23a10.63 10.63 0 0 0 9.97 17.75c.27-.02.41-.24.35-.48.02-.08-.01-.13-.07-.23l-.42-.72c-.08-.15-.36-.27-.57-.28zm-3.8-19.13c-.26.02-.4.24-.34.47-.02.09 0 .14.07.24l.41.72c.12.2.4.32.6.33a8.81 8.81 0 0 1 10.25 7.2 8.76 8.76 0 0 1-1.93 7.2c-.15.22-.16.44-.01.7l.41.7c.12.21.31.3.55.24.05-.03.15-.09.17-.17a10.63 10.63 0 0 0-.69-15.04 10.74 10.74 0 0 0-9.49-2.59z"/></g><g><path fill="url(#e)" stroke="#0A0A0E" stroke-linejoin="round" stroke-width="2" d="M18.12 0a18.12 18.12 0 1 1 0 36.24 18.12 18.12 0 0 1 0-36.24z" transform="rotate(30 101.23 730.33)"/><path fill="#FFF" fill-rule="nonzero" d="M388.58 71.5l1.35-2.33 5.34 3.08 2.05-3.55-14.53-8.4-2.06 3.56 5.34 3.08-1.35 2.34c-4.45-2.3-8.21-3.33-8.8-2.3-.6 1.03 2.17 3.77 6.4 6.48L378 80.93l3.86 2.23 4.32-7.47c4.44 2.3 8.2 3.32 8.79 2.3.59-1.04-2.17-3.78-6.39-6.48zm-2.04 3.55a47.6 47.6 0 0 1-3.86-2.23v.01c-3.73-2.38-6.21-4.7-5.75-5.5.46-.8 3.7.19 7.64 2.23l-1.5 2.6a33.92 33.92 0 0 0 3.86 2.23l1.5-2.6c3.73 2.37 6.2 4.69 5.74 5.49-.47.79-3.7-.2-7.63-2.23"/></g><g transform="rotate(-30 186.57 -250.97)"><ellipse cx="18.12" cy="17.88" fill="url(#f)" stroke="#0A0A0E" stroke-linejoin="round" stroke-width="2" rx="18.12" ry="17.88"/><g fill="#FFF" fill-rule="nonzero"><path d="M15.52 16.7c.48 0 .88.4.88.9 0 .49-.4.89-.88.89h-2.29c-2.2 0-4-1.82-4-4.05 0-2.24 1.8-4.05 4-4.05h5.89c.49 0 .88.4.88.89s-.4.89-.88.89h-5.89C12 12.17 11 13.18 11 14.44s1 2.27 2.24 2.27h2.29z"/><path d="M13.71 18.49a.89.89 0 0 1-.88-.9c0-.48.4-.88.88-.88H16c2.2 0 4 1.81 4 4.05 0 2.23-1.8 4.04-4 4.04H10.1a.88.88 0 0 1-.88-.89c0-.49.4-.88.88-.88H16c1.24 0 2.24-1.02 2.24-2.27s-1-2.27-2.24-2.27H13.7z"/><path fill-opacity=".5" d="M10.8 24.45L9.39 23.4l8.99-12.7 1.43 1.04z"/></g><g fill-rule="nonzero"><path fill="#000" d="M21.42 23.11h2.84c.4 0 .7-.08.9-.23.2-.15.3-.4.3-.72 0-.33-.1-.57-.3-.72-.2-.16-.5-.23-.9-.23h-2.84v-1.04h2.79c.7 0 1.23.17 1.6.5.37.35.56.84.56 1.5 0 .64-.19 1.14-.56 1.47-.37.34-.9.5-1.6.5h-2.79v-1.03zm3.3-4.56a.8.8 0 0 0 .6-.3c.14-.17.21-.41.21-.7 0-.25-.05-.45-.16-.6a.5.5 0 0 0-.43-.24.4.4 0 0 0-.32.13.9.9 0 0 0-.18.36c-.06.24-.12.48-.16.72-.06.32-.14.58-.24.8-.09.21-.24.4-.42.53-.2.14-.44.2-.76.2-.28 0-.54-.07-.76-.23a1.58 1.58 0 0 1-.53-.64c-.13-.28-.2-.59-.2-.93 0-.36.07-.68.2-.96.14-.29.32-.5.56-.67.23-.17.5-.25.79-.26v1.02a.74.74 0 0 0-.5.27.9.9 0 0 0-.2.6c0 .23.05.41.15.55.1.14.23.2.42.2.13 0 .23-.03.3-.12.07-.08.13-.2.18-.35.04-.15.1-.39.15-.7.06-.33.14-.6.23-.82.1-.22.23-.4.41-.54.19-.13.44-.2.74-.2s.57.08.8.24c.24.16.43.39.56.67.14.3.21.64.2.98 0 .38-.07.73-.2 1.03-.14.29-.34.53-.6.71-.25.17-.55.26-.85.26l.02-1.01zm-3.3-3.5v-1.69c0-.48.1-.91.31-1.28.2-.37.5-.67.87-.86.37-.2.8-.3 1.27-.3s.9.1 1.27.3c.37.2.67.5.87.86.21.37.31.8.31 1.28v1.68h-4.9zm4.03-1.69c0-.44-.15-.78-.43-1.02a1.72 1.72 0 0 0-1.15-.36c-.47 0-.86.12-1.14.36-.3.24-.43.58-.43 1.02v.65h3.15v-.65z"/><path fill="#FFF" d="M21.42 23.11h2.84c.4 0 .7-.08.9-.23.2-.15.3-.4.3-.72 0-.33-.1-.57-.3-.72-.2-.16-.5-.23-.9-.23h-2.84v-1.04h2.79c.7 0 1.23.17 1.6.5.37.35.56.84.56 1.5 0 .64-.19 1.14-.56 1.47-.37.34-.9.5-1.6.5h-2.79v-1.03zm3.3-4.56a.8.8 0 0 0 .6-.3c.14-.17.21-.41.21-.7 0-.25-.05-.45-.16-.6a.5.5 0 0 0-.43-.24.4.4 0 0 0-.32.13.9.9 0 0 0-.18.36c-.06.24-.12.48-.16.72-.06.32-.14.58-.24.8-.09.21-.24.4-.42.53-.2.14-.44.2-.76.2-.28 0-.54-.07-.76-.23a1.58 1.58 0 0 1-.53-.64c-.13-.28-.2-.59-.2-.93 0-.36.07-.68.2-.96.14-.29.32-.5.56-.67.23-.17.5-.25.79-.26v1.02a.74.74 0 0 0-.5.27.9.9 0 0 0-.2.6c0 .23.05.41.15.55.1.14.23.2.42.2.13 0 .23-.03.3-.12.07-.08.13-.2.18-.35.04-.15.1-.39.15-.7.06-.33.14-.6.23-.82.1-.22.23-.4.41-.54.19-.13.44-.2.74-.2s.57.08.8.24c.24.16.43.39.56.67.14.3.21.64.2.98 0 .38-.07.73-.2 1.03-.14.29-.34.53-.6.71-.25.17-.55.26-.85.26l.02-1.01zm-3.3-3.5v-1.69c0-.48.1-.91.31-1.28.2-.37.5-.67.87-.86.37-.2.8-.3 1.27-.3s.9.1 1.27.3c.37.2.67.5.87.86.21.37.31.8.31 1.28v1.68h-4.9zm4.03-1.69c0-.44-.15-.78-.43-1.02a1.72 1.72 0 0 0-1.15-.36c-.47 0-.86.12-1.14.36-.3.24-.43.58-.43 1.02v.65h3.15v-.65z"/></g></g><g><path fill="url(#g)" stroke="#0A0A0E" stroke-linejoin="round" stroke-width="2" d="M21.23-1c.96 0 2 .26 2.88.76l16.45 9.19a5.62 5.62 0 0 1 2.9 4.86v18.44a5.73 5.73 0 0 1-2.9 4.87L24.1 46.23a5.87 5.87 0 0 1-5.76 0L1.9 37.05A5.62 5.62 0 0 1-1 32.18V13.81a5.72 5.72 0 0 1 2.9-4.86L18.4-.24A5.6 5.6 0 0 1 21.23-1z" transform="rotate(-30 237.14 -86.75)"/><path fill="#FFF" d="M95.35 99.62a5.75 5.75 0 0 1 2.65-.73l14.42-.12a5.1 5.1 0 0 1 4.54 2.54l7.07 12.26a5.1 5.1 0 0 1-.06 5.2l-7.35 12.37a5.16 5.16 0 0 1-1.95 1.94c-.81.47-1.69.72-2.65.72l-14.4.17a5.1 5.1 0 0 1-4.53-2.54l-7.07-12.26a5.1 5.1 0 0 1 .06-5.2l7.32-12.42a5.16 5.16 0 0 1 1.95-1.93zm.84 1.44c-.54.31-.99.76-1.3 1.3l-7.39 12.41a3.62 3.62 0 0 0-.05 3.57l7.05 12.21a3.56 3.56 0 0 0 3.12 1.75l14.4-.18a3.7 3.7 0 0 0 3.16-1.82l7.37-12.34c.63-1.1.66-2.5.05-3.56l-7.08-12.26a3.56 3.56 0 0 0-3.11-1.75l-14.4.18c-.64 0-1.3.19-1.83.5zm2.37 3.93c.43-.25.91-.4 1.46-.34l10.31-.15c1.01-.02 1.94.49 2.45 1.37l5.04 8.72a2.8 2.8 0 0 1-.04 2.8l-5.29 8.87c-.24.45-.62.8-1.05 1.04-.43.25-.92.4-1.43.4l-10.32.14c-1 .02-1.94-.49-2.45-1.37l-5.06-8.77a2.8 2.8 0 0 1 .04-2.8l5.28-8.86c.25-.46.63-.8 1.06-1.05zm.7 1.2c-.2.12-.4.3-.52.55l-5.23 8.84c-.25.45-.25 1-.01 1.42l5.06 8.77c.27.46.72.7 1.24.7l10.31-.14c.28.03.5-.03.73-.17.24-.14.38-.34.52-.54l5.28-8.87c.25-.45.25-.98 0-1.42l-5.05-8.77a1.4 1.4 0 0 0-1.24-.7l-10.36.17c-.28-.03-.5.03-.73.17zm2.5 4.18c.25-.14.46-.2.74-.17l5.3-.1c.51.02.98.28 1.24.71l2.6 4.5c.26.47.24.98-.01 1.43l-2.73 4.55c-.11.25-.28.4-.51.54-.2.11-.49.16-.73.18l-5.3.09c-.52-.01-1-.3-1.24-.71l-2.6-4.5a1.41 1.41 0 0 1 0-1.43l2.73-4.55c.11-.25.28-.4.52-.54zm.7 1.09l-.1.05-2.73 4.55 2.6 4.62 5.41-.03 2.83-4.6-2.6-4.62-5.41.03z"/></g><g><path fill="url(#h)" stroke="#0A0A0E" stroke-linejoin="round" stroke-width="2" d="M20.37-.97c.93 0 1.94.25 2.78.74L38.9 8.56c1.71.99 2.8 2.72 2.8 4.7V30.9a5.52 5.52 0 0 1-2.8 4.7l-15.75 8.73a5.67 5.67 0 0 1-5.56 0l-15.76-8.8a5.43 5.43 0 0 1-2.8-4.7V13.27c0-1.9 1.1-3.71 2.8-4.7l15.82-8.8a5.43 5.43 0 0 1 2.72-.73z" transform="rotate(30 204.65 791.2)"/><path fill="#FFF" d="M439.86 33.05l-5.1-2.95-.58 1 5.1 2.95-.1-.06c1.5.86 2.08 2.65 1.3 3.99a2.64 2.64 0 0 1-1.63 1.22l-2.25 3.9a8.8 8.8 0 0 1-5.12 3.95 10.8 10.8 0 0 1-5.07.12l-.01.02c-.92 1.41-1.95 1.83-3.1 1.25l-.14-.08-1.16-.67-2.13 3.7-1-.57 2.14-3.7-1.03-.6c-1.27-.73-1.5-1.89-.68-3.47a9.76 9.76 0 0 1-2.68-4.15 8.58 8.58 0 0 1 .63-6.33l.14-.26 2.34-4.06a2.65 2.65 0 0 1 .2-2.13c.75-1.3 2.5-1.7 3.96-.95l.06.03 5.1 2.94.57-1-5.08-2.94a47.63 47.63 0 0 1 .85-1.4l5.06 2.91.57-1-4.93-2.85c1.52-1.8 3.73-3.1 6.72-2.44l-.93 1.6 1 .57 1.07-1.84a11.4 11.4 0 0 1 2.07 1l.15.08-1.15 2 1 .58 1.15-2 .04.02.54.32c.55.34 1.04.7 1.46 1.08l-1.05 1.81 1 .58.88-1.52a6.88 6.88 0 0 1 1.07 6.84l-4.95-2.86-.58 1 5.09 2.93-.15.28-.66 1.16zm-19.72 10.74l-.03.06c-.37.88-.18 1.44.71 1.95l2.53 1.46c.61.35 1.08.47 1.57.16.19-.12.3-.33.44-.57a6.26 6.26 0 0 1-.9-.43l-.23-.13c-.42-.24-.64-.38-1.48-.85-.12-.07-.7-.36-1.52-.88-.37-.23-.74-.49-1.1-.77zm17.4-4.53a3.38 3.38 0 0 1-.94-.3l-.12-.06-5.1-2.94-.58 1 5.1 2.94-.82 1.43-5.1-2.94-.58 1 5.06 2.92a7.05 7.05 0 0 1-6.66 2.59l.72-1.26-1-.58-.9 1.59a9.64 9.64 0 0 1-2.29-1l1.05-1.82-1-.58-1.05 1.83-.57-.34a10.5 10.5 0 0 1-1.46-1.08l.94-1.64-1-.58-.78 1.36a6.85 6.85 0 0 1-1.24-7.3l5.04 2.92.58-1-5.08-2.93v-.01l.82-1.42 5.08 2.93.58-1-5.09-2.94.1.06c-.34-.2-.63-.44-.87-.7l-1.87 3.24a7.58 7.58 0 0 0-.75 5.56 9.14 9.14 0 0 0 3.85 5.21l1.73 1c.9.5 1.36.77 1.9 1.05 1.73.86 4.16.93 5.8.41 1.66-.52 3.47-1.4 4.6-3.34l1.89-3.28zm-6.35-8.79a.52.52 0 0 0-.27-.07h-1.57a.53.53 0 0 0-.37.26l-.73 1.26-.04.09a.53.53 0 0 0 .04.45l.75 1.27.05.08c.04.05.1.09.15.12.08.05.17.07.27.07l1.47.01h.1c.15-.03.29-.12.37-.26l.73-1.27.04-.08a.53.53 0 0 0-.04-.45l-.75-1.28-.05-.07a.55.55 0 0 0-.15-.13zm5.88 7.41l.3.15c.79.24 1.62-.03 2-.7.44-.75.14-1.75-.67-2.28l-.11.2-.46.8-3.1-1.8-.58 1 3.1 1.8-.48.83zm-13.75-11.71c-.91-.53-2.02-.32-2.48.47-.38.66-.18 1.52.44 2.1l.42.24.47-.81 3.3 1.9.57-1-3.3-1.9.58-1z"/></g></g></svg>