<svg xmlns="http://www.w3.org/2000/svg" width="580" height="200"><defs><linearGradient id="a" x1="91.69%" x2="0%" y1="50%" y2="50%"><stop offset="0%" stop-color="#4136DE"/><stop offset="100%" stop-color="#8183FF"/></linearGradient><linearGradient id="b" x1="31.28%" x2="31.28%" y1="0%" y2="50%"><stop offset="0%" stop-color="#EE77BA"/><stop offset="100%" stop-color="#EF40A1"/></linearGradient><linearGradient id="c" x1="31.28%" x2="31.28%" y1="0%" y2="50%"><stop offset="0%" stop-color="#EE77BA"/><stop offset="100%" stop-color="#EF40A1"/></linearGradient><linearGradient id="d" x1="31.28%" x2="31.28%" y1="0%" y2="50%"><stop offset="0%" stop-color="#EE77BA"/><stop offset="100%" stop-color="#EF40A1"/></linearGradient><linearGradient id="f" x1="60.74%" x2="39.26%" y1="100%" y2="15.43%"><stop offset="0%" stop-color="#4136DE"/><stop offset="100%" stop-color="#8183FF"/></linearGradient><linearGradient id="g" x1="77.89%" x2="12.73%" y1="0%" y2="80.7%"><stop offset="0%" stop-color="#EE71B8"/><stop offset="100%" stop-color="#EF40A1"/></linearGradient><radialGradient id="e" r="75.67%" fx="50%" fy="50%"><stop offset="0%" stop-color="#594AFF"/><stop offset="100%" stop-color="#3B2ECE"/></radialGradient></defs><g fill="none" fill-rule="evenodd"><path fill="#131319" fill-opacity=".01" d="M0 0h580v200H0z"/><g transform="translate(149 15)"><path fill="#5C5CD6" stroke="#0A0A0E" stroke-width="2" d="M100.9 57.07c4.83-2.49 10.63-.5 19.94 5 9.3 5.51 27.53 1.92 34.01.96 6.48-.95 15.06-13.6 23.99-8.45 8.93 5.16 2.96 13.8 4.65 18.19 1.7 4.4 11 10.56 12.46 26.2 1.45 15.64-7.67 20.12-10.76 24.61-3.1 4.5-1.21 9.77 5.29 6.4 6.5-3.35 17.5-11 21.95-3.35 4.45 7.64-7.58 17.18-13.48 21.08-5.9 3.9-10.65 4.55-12.56 6.27-1.91 1.7 2.32 8.3-3.13 10.68-5.45 2.37-19.41 5.32-52.42 5.32-33 0-34.91-6.53-34.91-10.15s1.76-9.51-5.38-11.95c-7.14-2.44-28.33-18.04-22.6-27.01 5.72-8.97 16.25 4.26 22.6 5.76 6.35 1.5 11.95 1.5 11.95-1.5s-13.45-6.25-11.95-23.46c1.5-17.2 10.21-17.2 9.12-23.56-1.09-6.35-3.6-18.55 1.23-21.04z"/><path stroke="#0A0A0E" stroke-linecap="round" stroke-linejoin="round" stroke-width="2" d="M134.04 103.41c-.57 4.88-3.08 7.77-7.52 8.67-3.78.77-8.05-1.35-9.56-3.16"/><path fill="#0A0A0E" d="M128.3 99.7c.02-1.78 1.15-3.64 5.14-4.14 4-.5 5.06.66 5.76 2.22.7 1.56-1.12 3.57-2.53 4.1-1.4.53-.98 2.6-2.3 2.58-.87-.02-1.74-.9-2.6-2.66-2.34-.2-3.5-.9-3.48-2.1z"/><path stroke="#0A0A0E" stroke-linecap="round" stroke-linejoin="round" stroke-width="2" d="M167.85 101.95c7.9.14 14.55-1.84 19.92-5.96m-23.63 9.85c6.1 5.22 12.68 6.82 19.74 4.8m-73.17-7.53c-7.75 1.41-13.22.47-16.42-2.83m19.71 6.34c-7.01 4.27-14.18 4.8-21.5 1.57m42.44-4.78c-.02 5.42 1.99 8.82 6.01 10.18 6.66 2.25 13.3-2.1 15.34-5.89M103.43 64.07c6.04-2.38 9.69-.33 10.93 6.18m56.87-9.87c-5.1 4.67-6.43 9.33-4 13.98"/><g stroke="#0A0A0E" stroke-linejoin="round" stroke-width="2"><path fill="url(#a)" d="M36.28-.74a11.9 11.9 0 0 1 3.63-.19c1.14.17 1.95.63 2.44 1.34 1.72 2.5.1 7.95-2.36 14.97-.63 1.8-1.3 3.7-1.93 5.65a1102.4 1102.4 0 0 1-5.74 17.37c-.61 1.75-1.12 3.18-1.5 4.15-.2.48-.35.85-.47 1.1-1 .82-1.1 2.16-4.44-2.8-2.36-3.52-6.26-9.33-11.33-14.47C8.88 20.59 3.67 16.6 1.1 14.63a11.2 11.2 0 0 1-1.98-1.74 3.46 3.46 0 0 1-.1-.87 7.46 7.46 0 0 1 2.69-1.68c1.82-.7 4.7-1.6 8.06-2.67 2.31-.73 4.86-1.53 7.45-2.39l.77-.25 5.3-1.83c4.9-1.71 9.57-3.34 12.99-3.94z" transform="rotate(-20 216.16 -390)"/><path fill="url(#b)" d="M11.62 7.3a58.9 58.9 0 0 1 12.88 8.8 43.95 43.95 0 0 1 10.53 13.77l-2.9 9.9c-2.96-6.84-6.87-12.49-11.74-16.94-3.77-3.45-9.33-7.85-16.7-13.21z" transform="rotate(-20 216.16 -390)"/><path fill="url(#c)" d="M26.34 2.25c2.15.73 4.67 2.46 7.54 5.24a31.76 31.76 0 0 1 6.22 7.88l-2.99 8.94c-2.16-5-4.7-8.91-7.63-11.7A54.85 54.85 0 0 0 18.42 4.7z" transform="rotate(-20 216.16 -390)"/><path fill="url(#d)" d="M37.88-.82A10.7 10.7 0 0 1 41.15.7c.61.47 1.23 1.2 1.85 2.21.09 1.71-.01 2.61-.14 3.3a45.98 45.98 0 0 1-1.41 4.88L40.3 9.46c-1.83-2.53-3.06-4.08-3.72-4.64A112.16 112.16 0 0 0 31.32.72a40.96 40.96 0 0 1 4.12-1.23 17.9 17.9 0 0 1 2.44-.31z" transform="rotate(-20 216.16 -390)"/></g><path stroke="#0A0A0E" stroke-linecap="round" stroke-linejoin="round" stroke-width="2" d="M108.9 93.99c5.99-5.13 10.32-5.13 13 0m22.56-1.05c5.3-5.3 9.87-5.3 13.67 0"/><rect width="16.11" height="16.11" x="129.15" y="58.74" fill="url(#d)" stroke="#0A0A0E" stroke-linejoin="round" stroke-width="2" rx="8.05"/><rect width="16.11" height="16.11" x="85.08" y="32.44" fill="url(#d)" stroke="#0A0A0E" stroke-linejoin="round" stroke-width="2" rx="8.05"/><rect width="16.11" height="16.11" x="129.15" y="-1" fill="url(#d)" stroke="#0A0A0E" stroke-linejoin="round" stroke-width="2" rx="8.05"/><rect width="16.11" height="16.11" x="160.33" y="125.63" fill="url(#d)" stroke="#0A0A0E" stroke-linejoin="round" stroke-width="2" rx="8.05"/><rect width="16.11" height="16.11" x="35.47" y="98.77" fill="url(#d)" stroke="#0A0A0E" stroke-linejoin="round" stroke-width="2" rx="8.05"/><rect width="14.11" height="14.11" y="74.97" fill="url(#e)" stroke="#0A0A0E" stroke-linejoin="round" stroke-width="2" rx="7.05"/><rect width="14.11" height="14.11" x="116.04" y="28.91" fill="url(#e)" stroke="#0A0A0E" stroke-linejoin="round" stroke-width="2" rx="7.05"/><rect width="14.11" height="14.11" x="33.83" y="7.14" fill="url(#e)" stroke="#0A0A0E" stroke-linejoin="round" stroke-width="2" rx="7.05"/><rect width="14.11" height="14.11" x="198.95" y="77.16" fill="url(#e)" stroke="#0A0A0E" stroke-linejoin="round" stroke-width="2" rx="7.05"/><path stroke="url(#f)" stroke-linecap="round" stroke-linejoin="round" stroke-width="4" d="M66.2 21.95c-5.93 2.1-8.4 4.53-7.44 7.28 1.46 4.13 10.3.56 10.3 3.64s-9.32 6.12-7.29 9.14c2.04 3.02 9.67-1.8 11.42 2.19 1.17 2.65.26 6.11-2.73 10.38"/><path stroke="url(#g)" stroke-linecap="round" stroke-linejoin="round" stroke-width="4" d="M155.85 33.6c-1.3-6.52-1.3-10.73 0-12.6 1.94-2.83 9.6 6.12 13.11 4.16 3.52-1.95-1.62-6.73 0-9.83 1.62-3.1 9.84 1.71 11.36-2.73 1.01-2.95.2-5.93-2.46-8.94"/></g></g></svg>