<svg xmlns="http://www.w3.org/2000/svg" width="560" height="206"><defs><linearGradient id="a" x1="60.7%" x2="39.3%" y1="100%" y2="15.4%"><stop offset="0%" stop-color="#4136DE"/><stop offset="100%" stop-color="#8183FF"/></linearGradient><linearGradient id="b" x1="77.9%" x2="12.7%" y1="0%" y2="80.7%"><stop offset="0%" stop-color="#EE71B8"/><stop offset="100%" stop-color="#EF40A1"/></linearGradient><linearGradient id="c" x1="31.3%" x2="31.3%" y1="0%" y2="50%"><stop offset="0%" stop-color="#EE77BA"/><stop offset="100%" stop-color="#EF40A1"/></linearGradient><linearGradient id="d" x1="31.3%" x2="31.3%" y1="0%" y2="50%"><stop offset="0%" stop-color="#EE77BA"/><stop offset="100%" stop-color="#EF40A1"/></linearGradient><linearGradient id="g" x1="31.3%" x2="31.3%" y1="0%" y2="50%"><stop offset="0%" stop-color="#EE77BA"/><stop offset="100%" stop-color="#EF40A1"/></linearGradient><radialGradient id="e" r="75.7%" fx="50%" fy="50%"><stop offset="0%" stop-color="#594AFF"/><stop offset="100%" stop-color="#3B2ECE"/></radialGradient><radialGradient id="f" r="76%" fx="50%" fy="50%" gradientTransform="matrix(.60159 -.79272 .78232 .60958 -.2 .6)"><stop offset="0%" stop-color="#594AFF"/><stop offset="100%" stop-color="#3B2ECE"/></radialGradient><radialGradient id="h" r="79.7%" fx="50%" fy="50%" gradientTransform="matrix(.574 -.75638 .81885 .53021 -.2 .6)"><stop offset="0%" stop-color="#594AFF"/><stop offset="100%" stop-color="#3B2ECE"/></radialGradient></defs><g fill="none" fill-rule="evenodd"><path fill="none" d="M0 6h560v200H0z"/><path fill="#5C5CD6" stroke="#0A0A0E" stroke-width="2" d="M239.9 78c4.8-2.4 10.6-.4 20 5 9.2 5.6 27.5 2 34 1 6.4-1 15-13.6 24-8.4 8.9 5.1 2.9 13.8 4.6 18.2 1.7 4.4 11 10.5 12.5 26.2 1.4 15.6-7.7 20-10.8 24.6-3.1 4.5-1.2 9.7 5.3 6.4 6.5-3.4 17.5-11 22-3.4 4.4 7.7-7.7 17.2-13.6 21.1-5.8 3.9-10.6 4.6-12.5 6.3-2 1.7 2.3 8.3-3.1 10.7-5.5 2.3-19.5 5.3-52.5 5.3s-34.9-6.6-34.9-10.2c0-3.6 1.8-9.5-5.4-12-7-2.4-28.3-18-22.6-27 5.8-8.9 16.3 4.3 22.6 5.8 6.4 1.5 12 1.5 12-1.5s-13.4-6.2-12-23.4c1.5-17.2 10.3-17.2 9.2-23.6-1.1-6.3-3.6-18.5 1.2-21z"/><path fill="#FED798" stroke="#0A0A0E" stroke-linejoin="round" stroke-width="2" d="M288.2 105c1-.3 2.5-.3 4.3 0 3.8.3 6.5 1.6 7.1 2.5.7 1.1 1 2 1 2.9 0 2.2-1 3.5-2.3 4.4-1.5 1-3.8 1.2-6.2 1.2-2.3 0-4.2-.3-5.5-1.3-1.1-.9-1.9-2.3-1.9-4.6 0-1 .2-2.5.8-3.4a4 4 0 0 1 2.7-1.7z"/><path fill="#000" d="M291.9 112.4c.5 0 1.4 0 1.9-.2 1.6-.7 2.4-1.9 2.4-3.7 0-1-.3-1.9-.9-2.6-.7-1-5.7-1.2-6.5-.3-.7.7-1.2 1.8-1.2 2.9 0 1.4.6 2.4 1.7 3.2.7.5 1.6.7 2.6.7z"/><path fill="#FED798" stroke="#0A0A0E" stroke-linejoin="round" stroke-width="2" d="M255 105.7c1.2 0 3 .4 4.4 1 1.7.7 2.9 1.7 3 2.4l.2.6.2 1.4c0 2.2-.9 3.6-2.2 4.4a11 11 0 0 1-5.9 1.3c-2.3 0-4.3-.3-5.7-1.3-1.2-.8-2-2.2-2-4.4 0-1 .4-2 .8-2.9.2-.5 1.3-1.3 3-1.8 1.3-.4 2.7-.7 4.1-.7z"/><path fill="#000" d="M254.5 113.6c.8 0 1.7.1 2.3-.4 1.2-.8 2-2.2 2-3.8 0-1-.3-2-.8-2.7-.8-1.1-6.2-1.1-7 0a4.8 4.8 0 0 0 1.2 6.5c.6.5 1.4.4 2.3.4z"/><path stroke="#0A0A0E" stroke-linecap="round" stroke-linejoin="round" stroke-width="2" d="M273 124.4c-.5 4.9-3 7.8-7.5 8.7-3.8.7-8-1.4-9.5-3.2"/><path fill="#0A0A0E" d="M267.3 120.7c0-1.8 1.2-3.6 5.1-4.1 4-.5 5.1.6 5.8 2.2.7 1.5-1.1 3.6-2.5 4-1.4.6-1 2.7-2.3 2.7-.9 0-1.8-1-2.6-2.7-2.4-.2-3.5-.9-3.5-2z"/><path stroke="#0A0A0E" stroke-linecap="round" stroke-linejoin="round" stroke-width="2" d="M306.8 123c8 0 14.6-1.9 20-6m-23.7 9.8a20.3 20.3 0 0 0 19.8 4.8m-73.2-7.5c-7.7 1.4-13.2.5-16.4-2.8m19.7 6.3a22 22 0 0 1-21.5 1.6m42.4-4.8c0 4.4 1.9 7.2 5.5 8.3a13 13 0 0 0 13.9-4.8M242.4 85c6-2.3 9.7-.3 11 6.2m56.8-9.8c-5 4.7-6.4 9.3-4 14"/><path stroke="url(#a)" stroke-linecap="round" stroke-linejoin="round" stroke-width="4" d="M160.2 30c-6 2-8.4 4.5-7.4 7.2 1.4 4.2 10.3.6 10.3 3.7s-9.4 6-7.3 9.1c2 3 9.6-1.8 11.4 2.2 1.2 2.6.2 6.1-2.7 10.4" transform="translate(55 3)"/><path stroke="url(#b)" stroke-linecap="round" stroke-linejoin="round" stroke-width="4" d="M356 98c-1.3-6.6-1.3-10.8 0-12.7 2-2.8 9.6 6.2 13 4.2 3.6-2-1.5-6.7 0-9.8 1.7-3.1 10 1.7 11.4-2.8 1-3 .2-5.9-2.4-8.9" transform="translate(55 3)"/><path fill="url(#c)" stroke="#0A0A0E" stroke-linejoin="round" stroke-width="2" d="M17.8-1C23-1 27.9 1 31.4 4.5a19 19 0 0 1 .4 27A19 19 0 1 1 17.8-1z" transform="rotate(30 91 901)"/><path fill="#FFF" fill-rule="nonzero" d="M471.8 114l-15.8-9.2a1.7 1.7 0 0 1-.6-2.3l9.1-15.9c.5-.8 1.6-1 2.4-.6l15.8 9.1c.8.5 1.1 1.6.6 2.4l-9 15.8c-.6.9-1.6 1.1-2.5.7z"/><path d="M459.3 104.2v-.2l1.4-2.5v-.1l-1-.6v-.1l.3-.5h.2l2.7 1.6v.1l-.2.5h-.2l-.9-.5h-.1l-1.5 2.6h-.1l-.6-.3zm6.4-.7h.1l.6.3s.1.1 0 .1l-1 1.8c-.5 1-1.4 1.3-2.3.7-1-.5-1.2-1.4-.6-2.4l1-1.8h.1l.6.3s.1.1 0 .2l-1 1.7c-.2.5-.2 1 .3 1.3.4.3.9 0 1.2-.5l1-1.7zm3 3l-.1-.1c0-.3-.1-.6-.5-.8-.3-.2-.6-.2-.8 0 0 .2.1.4.6.8.8.6 1 1.1.7 1.8-.4.7-1.3.7-2 .2-.8-.4-1.2-1-.9-1.9h.2l.5.3.1.2c0 .3 0 .6.5.8.3.2.6.2.8 0 .2-.3-.1-.6-.7-1-.6-.5-1-1-.6-1.6s1.2-.7 2-.3c.8.5 1 1.2.8 1.9 0 0 0 .1-.1 0l-.6-.3zm0 3.1v-.1l1.8-3.2s0-.1.1 0l1.4.7c1 .6 1.4 1.7.8 2.7-.6 1-1.7 1.3-2.8.7l-1.3-.8zm1.7.1c.6.3 1.2.2 1.6-.4.3-.6.2-1.3-.4-1.6l-.6-.3h-.1l-1 1.9c-.1 0 0 0 0 .1l.5.3z" fill="#EF40A1" fill-rule="nonzero"/><path fill="url(#d)" d="M28.4 20.7H7.8a.3.3 0 0 1-.3-.3V9c0-.8.7-1.5 1.5-1.5h18.3c.8 0 1.4.7 1.4 1.5v11.4c0 .2-.1.3-.3.3z" transform="rotate(30 91 901)"/><path fill="#FFF" fill-rule="nonzero" d="M470.2 100.7l-1.7-.9a.2.2 0 0 1 0-.3l4-6.9c0-.1.1-.1.2 0l1.7.9v.3l-4 6.9s-.1.1-.2 0z"/><path fill="#FFF" fill-rule="nonzero" d="M476 97l-7.4-4.2a.2.2 0 0 1-.1-.3l1-1.6c0-.1.1-.2.2-.1l7.4 4.3c.1 0 .2.2.1.3l-1 1.6c0 .1-.1.1-.2 0z"/><g><path fill="url(#c)" stroke="#0A0A0E" stroke-linejoin="round" stroke-width="2" d="M18.1-1a19 19 0 0 1 13.5 32.6A19 19 0 0 1-1 18.1 19 19 0 0 1 18.1-1z" transform="rotate(-30 113.1 -118.1)"/><path fill="#FEFEFD" fill-rule="nonzero" d="M100.2 48.1l6-3.4v-.3a13 13 0 0 0-1-1.8h-.3L93 49.3v.3l1 1.7c0 .2 0 .2.3.1l5.9-3.4zm3-7.3v-.2l-.8-.4-1.2-.5-.7-.2a8.1 8.1 0 0 0-5.6 1l-5.2 3c-.2.2-.2.2-.1.4l2 3.4c.1.2.1.2.3.1l11.3-6.5v-.2zm3.6 6.2l-.5.3-10.8 6.3c-.2 0-.2 0-.1.3l2 3.4c0 .1 0 .2.3 0l5-2.8.7-.5a8.6 8.6 0 0 0 2.3-2.5h.1a7.3 7.3 0 0 0 1.1-4.3V47zM96.5 60.4l-3.1-5.5H93l-2 1.2h-.3l-1.1-2L92 53v-.3l-1-1.8c-.1-.1-.1-.2-.3 0l-2.1 1.1h-.3l-1-1.7.1-.3 2.1-1.2c.2 0 .2 0 .1-.3l-3-5.3v-.3l7.4-4.2a11 11 0 0 1 7.9-1 10.7 10.7 0 0 1 3.4 1.7c.1.1.3.1.4 0l1.8-1c.2-.1.2-.1.4.1l.9 1.6-.1.3-1.4.8v.3l1 1.8c.1.2.1.2.3 0l1.5-.8c.2 0 .1.1.2.2l.2.4.7 1.2-.1.3-1.8 1c-.2.1-.3.3-.2.4a9 9 0 0 1-1 5.6l-.7 1.4a12.2 12.2 0 0 1-4 3.5l-6.9 4z"/></g><g><path fill="url(#c)" stroke="#0A0A0E" stroke-linejoin="round" stroke-width="2" d="M14.7-1a15.6 15.6 0 0 1 11 26.8A15.6 15.6 0 0 1-1 14.7 15.6 15.6 0 0 1 14.7-1z" transform="rotate(30 -1 761.3)"/><path d="M390.9 114.2l.8 3.4-8.4 2.3-.8-3.3zm1.2 5l.9 3.4-13.3 3.5-.8-3.3zm-11.3-2.3l.9 3.4-3.4.9-.9-3.4zm12.7 7.5l.8 3.3-13.2 3.5-.9-3.2z" fill="#FFF" fill-rule="nonzero"/></g><g><path fill="url(#c)" stroke="#0A0A0E" stroke-linejoin="round" stroke-width="2" d="M14.2-1A15.2 15.2 0 0 1 25 25a15.2 15.2 0 0 1-21.6 0 15.2 15.2 0 0 1 0-21.6C6.2.7 10-1 14.2-1z" transform="rotate(-30 299.5 -183.1)"/><path fill="#FFF" fill-rule="nonzero" d="M155.6 130.4c-1-1.8-2.5-1.8-4.8-.8-1.6.7-2.2.4-2.6-.3-.4-.7-.1-1.5.9-2 .9-.6 1.6-.6 2.3 0 .1.2.3.2.5.1l.8-.5c.2 0 .3-.3.2-.5a3 3 0 0 0-3.6-.9l-.7-1.2c-.1-.2-.4-.3-.6-.2l-.8.5c-.2.1-.3.3-.2.6l.7 1.2c-1.4 1.1-1.8 2.7-1 4 1 1.7 2.3 1.7 4.6.7 1.6-.5 2.2-.5 2.7.3.5.9.1 1.8-.9 2.4-1.3.8-2 .5-2.7-.2-.2-.2-.4-.2-.5-.1l-.9.5c-.2.1-.3.4-.1.6 1 1.2 2.3 1.6 4.1.9l.7 1.2c.1.2.4.3.7.2l.7-.4c.2-.2.3-.4.2-.7l-.7-1.2c1.4-1.2 1.8-2.8 1-4.2z"/><path fill="#FFF" fill-rule="nonzero" d="M152.7 139.2a8.8 8.8 0 0 1-10.2-7.2c-.5-2.6.2-5.2 1.9-7.2.1-.2.2-.4 0-.7l-.4-.7c-.1-.2-.3-.3-.5-.2-.1 0-.2 0-.2.2a10.6 10.6 0 0 0 10.1 17.5c.3 0 .4-.2.4-.4l-.1-.3-.4-.7-.6-.3zm-3.8-19.1c-.3 0-.4.2-.3.5v.2l.4.7.7.4a8.8 8.8 0 0 1 10.2 7.2c.5 2.6-.3 5.2-2 7.2v.7l.5.7c0 .2.3.3.5.2 0 0 .2 0 .2-.2 4-4.3 3.6-11-.7-15a10.7 10.7 0 0 0-9.5-2.6z"/></g><g><path fill="url(#e)" stroke="#0A0A0E" stroke-linejoin="round" stroke-width="2" d="M18.1 0a18.1 18.1 0 1 1 0 36.2 18.1 18.1 0 0 1 0-36.2z" transform="rotate(30 91.2 693)"/><path fill="#FFF" fill-rule="nonzero" d="M368.6 71.5l1.3-2.3 5.4 3 2-3.5-14.5-8.4-2 3.6 5.3 3-1.4 2.4c-4.4-2.3-8.2-3.3-8.8-2.3-.6 1 2.2 3.8 6.4 6.5l-4.3 7.4 3.9 2.3 4.3-7.5c4.4 2.3 8.2 3.3 8.8 2.3.6-1-2.2-3.8-6.4-6.5zm-2 3.6l-2-1.1-2-1.2c-3.7-2.4-6.1-4.7-5.7-5.5.5-.8 3.7.2 7.7 2.3l-1.5 2.6a34 34 0 0 0 3.8 2.2l1.5-2.6c3.8 2.4 6.2 4.7 5.8 5.5-.5.8-3.7-.2-7.7-2.2"/></g><g transform="rotate(-30 176.6 -213.6)"><ellipse cx="18.1" cy="17.9" fill="url(#f)" stroke="#0A0A0E" stroke-linejoin="round" stroke-width="2" rx="18.1" ry="17.9"/><g fill="#FFF" fill-rule="nonzero"><path d="M15.5 16.7c.5 0 .9.4.9.9s-.4.9-.9.9h-2.3a4 4 0 0 1-4-4 4 4 0 0 1 4-4.1h6c.4 0 .8.4.8.9s-.4.9-.9.9h-5.9c-1.2 0-2.2 1-2.2 2.2s1 2.3 2.2 2.3h2.3z"/><path d="M13.7 18.5a.9.9 0 0 1-.9-.9c0-.5.4-.9 1-.9H16a4 4 0 0 1 4 4 4 4 0 0 1-4 4.1h-5.9a.9.9 0 0 1-.9-.9c0-.5.4-.9 1-.9H16c1.2 0 2.2-1 2.2-2.2s-1-2.3-2.2-2.3h-2.3z"/><path fill-opacity=".5" d="M10.8 24.4l-1.4-1 9-12.7 1.4 1z"/></g><g fill-rule="nonzero"><path fill="#000" d="M21.4 23.1h2.9c.4 0 .7 0 .9-.2.2-.2.3-.4.3-.7 0-.4-.1-.6-.3-.8l-1-.2h-2.8v-1h2.8c.7 0 1.2.1 1.6.5.4.3.6.8.6 1.5 0 .6-.2 1.1-.6 1.4-.4.4-.9.5-1.6.5h-2.8v-1zm3.3-4.6c.3 0 .5 0 .6-.2.2-.2.2-.5.2-.8l-.1-.6-.5-.2-.3.1-.2.4-.1.7c0 .3-.2.6-.3.8 0 .2-.2.4-.4.6l-.7.2c-.3 0-.6-.1-.8-.3l-.5-.6c-.2-.3-.2-.6-.2-1 0-.3 0-.6.2-1l.5-.6.8-.2v1c-.2 0-.4 0-.5.2l-.2.6c0 .3 0 .5.2.6l.4.2.3-.1.2-.4.1-.7c0-.3.2-.6.3-.8 0-.2.2-.4.4-.5.1-.2.4-.2.7-.2.3 0 .6 0 .8.2l.6.7.2 1-.2 1-.6.7-.9.3v-1zM21.4 15v-1.6c0-.5.1-1 .3-1.3.2-.4.5-.7.9-.9.4-.2.8-.3 1.3-.3s.9.1 1.2.3c.4.2.7.5 1 .9l.2 1.3V15h-4.9zm4-1.6c0-.5-.1-.8-.4-1-.3-.3-.7-.4-1.1-.4-.5 0-.9.1-1.2.3-.3.3-.4.6-.4 1v.7h3.1v-.6z"/><path fill="#FFF" d="M21.4 23.1h2.9c.4 0 .7 0 .9-.2.2-.2.3-.4.3-.7 0-.4-.1-.6-.3-.8l-1-.2h-2.8v-1h2.8c.7 0 1.2.1 1.6.5.4.3.6.8.6 1.5 0 .6-.2 1.1-.6 1.4-.4.4-.9.5-1.6.5h-2.8v-1zm3.3-4.6c.3 0 .5 0 .6-.2.2-.2.2-.5.2-.8l-.1-.6-.5-.2-.3.1-.2.4-.1.7c0 .3-.2.6-.3.8 0 .2-.2.4-.4.6l-.7.2c-.3 0-.6-.1-.8-.3l-.5-.6c-.2-.3-.2-.6-.2-1 0-.3 0-.6.2-1l.5-.6.8-.2v1c-.2 0-.4 0-.5.2l-.2.6c0 .3 0 .5.2.6l.4.2.3-.1.2-.4.1-.7c0-.3.2-.6.3-.8 0-.2.2-.4.4-.5.1-.2.4-.2.7-.2.3 0 .6 0 .8.2l.6.7.2 1-.2 1-.6.7-.9.3v-1zM21.4 15v-1.6c0-.5.1-1 .3-1.3.2-.4.5-.7.9-.9.4-.2.8-.3 1.3-.3s.9.1 1.2.3c.4.2.7.5 1 .9l.2 1.3V15h-4.9zm4-1.6c0-.5-.1-.8-.4-1-.3-.3-.7-.4-1.1-.4-.5 0-.9.1-1.2.3-.3.3-.4.6-.4 1v.7h3.1v-.6z"/></g></g><g><path fill="url(#g)" stroke="#0A0A0E" stroke-linejoin="round" stroke-width="2" d="M21.2-1c1 0 2 .3 3 .8l16.4 9.1c1.7 1 2.9 2.9 2.9 5v18.4c0 2-1.2 3.8-3 4.8l-16.4 9.1c-.9.5-1.9.8-2.9.8s-2-.3-2.9-.8L2 37A5.6 5.6 0 0 1-1 32.2V13.8C-1 11.8.1 10 1.9 9L18.4-.2c.9-.5 1.8-.8 2.8-.8z" transform="rotate(-30 227.1 -49.4)"/><path fill="#FFF" d="M75.4 99.6c.8-.5 1.7-.7 2.6-.7l14.4-.1c1.9 0 3.6 1 4.6 2.5l7 12.3c1 1.6 1 3.6 0 5.2L96.6 131c-.5.9-1.1 1.5-2 2-.7.4-1.6.7-2.6.7l-14.4.2c-1.9 0-3.6-1-4.5-2.6l-7-12.2c-1-1.6-1-3.6 0-5.2l7.3-12.5c.5-.8 1.1-1.4 2-1.9zm.8 1.5c-.6.3-1 .7-1.3 1.3l-7.4 12.4a3.6 3.6 0 0 0 0 3.5l7 12.3a3.6 3.6 0 0 0 3.1 1.7l14.4-.2a3.7 3.7 0 0 0 3.2-1.8l7.3-12.3c.7-1.1.7-2.5.1-3.6l-7-12.3a3.6 3.6 0 0 0-3.2-1.7l-14.4.2c-.6 0-1.3.2-1.8.5zm2.4 3.9c.4-.3.9-.4 1.4-.4l10.3-.1c1 0 2 .5 2.5 1.4l5 8.7c.5.8.5 2 0 2.8l-5.3 8.9c-.3.4-.6.8-1 1-.5.2-1 .4-1.5.4l-10.3.1c-1 0-2-.4-2.5-1.3l-5-8.8c-.5-.8-.5-2 0-2.8l5.3-8.9c.3-.4.6-.8 1-1zm.7 1.2l-.6.5-5.2 8.9c-.2.4-.2 1 0 1.4l5 8.8c.3.4.8.7 1.3.7l10.3-.2.7-.1.6-.6 5.2-8.8c.3-.5.3-1 0-1.5l-5-8.7c-.3-.5-.7-.7-1.3-.7L80 106c-.3 0-.5 0-.7.2zm2.5 4.2c.2-.2.4-.2.7-.2l5.3-.1c.5 0 1 .3 1.2.7l2.6 4.5c.3.5.3 1 0 1.4l-2.7 4.6-.5.5-.7.2-5.3.1c-.6 0-1-.3-1.3-.7l-2.6-4.5c-.3-.5-.2-1 0-1.4l2.8-4.6c0-.2.2-.4.5-.5zm.7 1l-.1.1-2.8 4.6 2.6 4.6h5.4l2.9-4.6-2.6-4.7h-5.4z"/></g><g><path fill="url(#h)" stroke="#0A0A0E" stroke-linejoin="round" stroke-width="2" d="M20.4-1c.9 0 2 .3 2.8.8l15.7 8.8c1.7 1 2.8 2.7 2.8 4.7v17.6c0 1.9-1 3.7-2.8 4.7l-15.8 8.7c-.8.5-1.8.8-2.7.8-1 0-2-.3-2.8-.8L1.8 35.5A5.4 5.4 0 0 1-1 30.8V13.3c0-2 1.1-3.8 2.8-4.7L17.7-.2c.8-.5 1.7-.8 2.7-.8z" transform="rotate(30 194.6 753.9)"/><path fill="#FFF" d="M419.9 33l-5.1-2.9-.6 1 5 3V34c1.5.9 2 2.6 1.3 4-.4.6-1 1-1.7 1.2l-2.2 3.9a8.8 8.8 0 0 1-5.1 4c-1.2.3-3.2.5-5 0h-.1c-1 1.5-2 2-3 1.3h-.2l-1.2-.7-2.1 3.7-1-.6 2.1-3.7-1-.6c-1.3-.7-1.5-1.9-.7-3.5a8.6 8.6 0 0 1-2-10.5v-.2l2.4-4c-.2-.8-.1-1.5.2-2.2.8-1.3 2.5-1.7 4-1v.1l5.1 3 .6-1-5-3a47.6 47.6 0 0 1 .8-1.4l5 3 .6-1-5-3a6.6 6.6 0 0 1 6.8-2.4l-1 1.6 1 .6 1.1-1.9a11.4 11.4 0 0 1 2.1 1l.2.1-1.2 2 1 .6 1.2-2a47.2 47.2 0 0 1 2 1.4l-1 1.8 1 .6.8-1.5a6.9 6.9 0 0 1 1.1 6.8l-5-2.8-.5 1 5 3v.2l-.7 1.1zM400 43.8c-.4 1-.2 1.5.7 2l2.6 1.5c.6.3 1 .4 1.5.1l.5-.5-1-.5-.2-.1-1.4-.9-1.6-.8-1-.8zm17.4-4.5l-.9-.3-.1-.1-5.1-3-.6 1 5.1 3-.8 1.4-5.1-3-.6 1 5 3a7 7 0 0 1-6.6 2.6l.7-1.3-1-.5-.9 1.5a9.6 9.6 0 0 1-2.3-1l1-1.8-1-.5-1 1.8a38.3 38.3 0 0 1-2-1.4l1-1.7-1-.6-.8 1.4c-2-2.3-2.3-5-1.3-7.3l5 3 .6-1-5-3 .8-1.4 5 2.9.6-1-5-3v.1l-.8-.7-1.9 3.2a7.6 7.6 0 0 0-.7 5.6c.5 2 2 4.2 3.8 5.2l1.7 1 2 1c1.7 1 4.1 1 5.7.5a7.6 7.6 0 0 0 4.6-3.4l2-3.2zm-6.3-8.8l-.3-.1h-1.5c-.2 0-.3.1-.4.3l-.8 1.2v.6l.8 1.2v.1l.2.1.3.1h1.5c.2 0 .3-.1.4-.3l.7-1.2v-.1-.5l-.7-1.2v-.1l-.2-.1zm5.9 7.4l.3.1c.8.3 1.6 0 2-.7.4-.7.1-1.7-.7-2.2l-.1.2-.5.7-3-1.7-.7 1 3.2 1.7-.5.9zm-13.8-11.7c-.9-.6-2-.3-2.5.4-.3.7-.1 1.6.5 2.1l.4.3.5-.8 3.3 1.9.5-1-3.3-2 .6-1z"/></g></g></svg>