<svg xmlns="http://www.w3.org/2000/svg" xmlns:xlink="http://www.w3.org/1999/xlink" width="215" height="144"><defs><linearGradient id="c" x1="50%" x2="57.4%" y1="0%" y2="100%"><stop offset="0%" stop-color="#FED798"/><stop offset="100%" stop-color="#FCB94D"/></linearGradient><linearGradient id="d" x1="15.95%" x2="50%" y1="8.91%" y2="100%"><stop offset="0%" stop-color="#B5B1BF"/><stop offset="100%" stop-color="#595563"/></linearGradient><linearGradient id="e" x1="50%" x2="50%" y1="0%" y2="100%"><stop offset="0%" stop-color="#9AB5FA"/><stop offset="100%" stop-color="#627EEA"/></linearGradient><rect id="a" width="215" height="144" rx="6"/></defs><g fill="none" fill-rule="evenodd"><mask id="b" fill="#fff"><use xlink:href="#a"/></mask><g mask="url(#b)"><g transform="translate(131 83)"><circle cx="36" cy="36" r="36" fill="#FFF"/><path fill="url(#c)" fill-rule="nonzero" d="M51.47 32.26c.7-4.67-2.85-7.18-7.71-8.85l1.57-6.32-3.85-.96-1.53 6.15c-1.01-.25-2.05-.49-3.08-.72l1.54-6.2-3.85-.96L33 20.72c-.84-.19-1.66-.38-2.46-.58v-.02l-5.3-1.32-1.03 4.1s2.86.66 2.8.7c1.56.4 1.84 1.42 1.8 2.24l-1.8 7.2.4.13-.41-.1-2.52 10.1c-.19.47-.67 1.18-1.76.9.04.07-2.8-.69-2.8-.69L18 47.78l5 1.26 2.75.7-1.59 6.4 3.84.96 1.58-6.33c1.05.28 2.07.55 3.07.8l-1.57 6.3 3.85.95 1.59-6.38c6.56 1.24 11.5.74 13.58-5.2 1.67-4.77-.09-7.53-3.54-9.33 2.51-.58 4.4-2.23 4.91-5.65zm-8.8 12.33c-1.18 4.78-9.23 2.2-11.84 1.55l2.12-8.47c2.6.64 10.97 1.93 9.73 6.92zm1.2-12.4c-1.09 4.35-7.78 2.14-9.96 1.6l1.92-7.69c2.17.54 9.17 1.55 8.04 6.09z" transform="rotate(-14 34.78 36.61)"/><path fill="url(#d)" d="M55.01 57.63l2.55 2.55A32.28 32.28 0 0 1 36 68.4c-8.28 0-15.84-3.1-21.56-8.22l2.55-2.55A28.7 28.7 0 0 0 36 64.8a28.7 28.7 0 0 0 19.01-7.17zM68.4 36c0 8.28-3.1 15.84-8.22 21.56l-2.55-2.55A28.7 28.7 0 0 0 64.8 36a28.7 28.7 0 0 0-7.17-19.01l2.55-2.55A32.28 32.28 0 0 1 68.4 36zM11.82 14.44l2.55 2.55A28.7 28.7 0 0 0 7.2 36a28.7 28.7 0 0 0 7.17 19.01l-2.55 2.55C6.7 51.83 3.6 44.28 3.6 36s3.1-15.84 8.22-21.56zM36 3.6c8.28 0 15.84 3.1 21.56 8.22l-2.55 2.55A28.68 28.68 0 0 0 36 7.2a28.7 28.7 0 0 0-19.01 7.17l-2.55-2.55A32.28 32.28 0 0 1 36 3.6z"/><g fill-rule="nonzero" transform="translate(48)"><circle cx="36" cy="36" r="36" fill="url(#e)"/><g fill="#FFF"><path d="M37.12 9L20.25 36.5l16.87-7.54zm0 53.99V49.43l-16.87-9.8z"/><path fill-opacity=".6" d="M20.25 36.5l16.87 9.79V28.96z"/></g></g></g></g></g></svg>